
<svg version="1.0" xmlns="http://www.w3.org/2000/svg"
 width="107" height="128" viewBox="0 0 107 128"
 preserveAspectRatio="xMidYMid meet">

<g transform="translate(0.000000,87.000000) scale(0.100000,-0.100000)"
fill="#000000" stroke="none">
<path d="M0 435 l0 -435 1315 0 1315 0 0 435 0 435 -1315 0 -1315 0 0 -435z
m512 181 c42 -28 55 -84 33 -141 -9 -26 -23 -49 -31 -52 -21 -8 -18 -19 21
-83 19 -32 35 -61 35 -64 0 -4 -17 -6 -37 -4 -35 3 -40 7 -71 66 -32 60 -34
62 -73 62 l-39 0 0 -65 0 -65 -35 0 -35 0 0 186 0 186 103 -4 c77 -3 109 -8
129 -22z m348 -113 c29 -76 62 -160 72 -186 l18 -48 -42 3 -42 3 -52 145 c-29
81 -55 138 -58 130 -3 -8 -26 -73 -49 -145 l-44 -130 -36 -3 c-20 -2 -37 0
-37 5 0 7 87 251 119 336 9 24 16 27 54 27 l43 0 54 -137z m287 10 l88 -126 3
126 3 127 34 0 35 0 0 -185 0 -185 -37 0 c-38 0 -39 1 -158 176 -66 97 -121
180 -123 185 -2 5 12 9 31 9 34 0 39 -5 124 -127z m512 107 c26 -13 45 -33 60
-62 l21 -43 -37 -3 c-30 -3 -41 1 -56 22 -35 49 -130 54 -178 10 -11 -10 -24
-34 -29 -56 -10 -35 -14 -38 -46 -38 -38 0 -38 3 -13 86 27 89 179 135 278 84z
m411 -15 l0 -35 -135 0 -135 0 0 35 0 35 135 0 135 0 0 -35z m140 -95 l0 -130
-35 0 -35 0 0 130 0 130 35 0 35 0 0 -130z m-1181 -18 c29 -45 31 -56 31 -135
l0 -87 -35 0 -35 0 0 135 c0 74 2 135 4 135 2 0 18 -22 35 -48z m1041 -37 l0
-35 -135 0 -135 0 0 35 0 35 135 0 135 0 0 -35z m-330 -85 l0 -100 -35 0 c-34
0 -35 1 -35 41 l0 40 -59 -41 c-52 -37 -64 -41 -107 -38 l-48 3 93 68 94 67
-51 0 c-51 0 -52 1 -52 30 l0 30 100 0 100 0 0 -100z m330 -65 l0 -35 -135 0
-135 0 0 35 0 35 135 0 135 0 0 -35z m330 0 l0 -35 -130 0 -130 0 0 35 0 35
130 0 130 0 0 -35z"/>
<path d="M350 515 l0 -55 48 0 c56 0 92 21 92 55 0 39 -25 55 -86 55 l-54 0 0
-55z"/>
</g>
</svg>
